<svg viewBox="0 0 980.97 1639.88" xmlns="http://www.w3.org/2000/svg"><path d="m897.6 644.71a12.41 12.41 0 0 1 -12.89-21.18 82.67 82.67 0 0 0 -51.39-28.78 12.41 12.41 0 1 1 -15.52-14.75v-5.84h.48v-71.36l-3.28-51.42-39-37-44-5.69v-155.83l13-34.48-80.2.62h-.38a172.77 172.77 0 0 0 -344.68-1.66h-73.74v187l-44 14-31 30v54.46h-6.43v76.7h-.38v.5a12.41 12.41 0 1 1 -15.52 14.76 82.65 82.65 0 0 0 -51.39 28.78 12.41 12.41 0 0 1 -12.9 21.18 83 83 0 0 0 -1.31 60.46 12.4 12.4 0 1 1 11.83 21.53 82.72 82.72 0 0 0 50.1 31.12v-.45h3.32a12.41 12.41 0 1 1 15.86 11.91v66a12.43 12.43 0 0 1 8.58 8.92h1.24v62.19l19 20.2v3.8h68.7a12.38 12.38 0 0 1 -6.14 20.16v66.61a12.4 12.4 0 0 1 0 24v66.27a12.39 12.39 0 0 1 0 24v66.27a12.4 12.4 0 0 1 0 24v68.26a12.41 12.41 0 0 1 10.14 9h40.51a12.39 12.39 0 0 1 20-6.24l9.81.75.1 6-.1 6-4 1s-4 7-6 8-8 2-8 2v63a10.14 10.14 0 0 1 8 2c4 3 4 9 4 9l19-.3v31.3h-5.69l-7.31 8v92l34 36h243.98l34-36-1-90-9-9h-4l-.92-32.79 18.92-.21s2-5 4-7 9-3 9-3v-61a87.9 87.9 0 0 1 -10-5c-3-2-5-7-5-7l-5-1.51v-10.45l3.75-1.79h8.42a12.39 12.39 0 0 1 20 6.24h40.51a12.37 12.37 0 0 1 8.79-8.72v-68.56a12.4 12.4 0 0 1 0-24v-66.27a12.39 12.39 0 0 1 0-24v-66.27a12.4 12.4 0 0 1 0-24v-66.61a12.41 12.41 0 0 1 -8.82-15.16h70.35v-9.68l19.33-20.32h8.67v-69.38a14.25 14.25 0 0 1 1.82-.7v-66a12.41 12.41 0 1 1 15.86-11.91h3.32v.45a82.75 82.75 0 0 0 50.09-31.12 12.4 12.4 0 1 1 11.85-21.54 83 83 0 0 0 -1.32-60.46z" fill="#f4f4f4"/><path d="m336.48 1306.07h-6.32a12.4 12.4 0 0 1 -12.24 10.44v63.54l12.08 12.39h18.66v28.8h-4.75l-8.63 8.63v91.66l34.72 36.41h243.58l35-35v-91.55l-10.15-10.15h-4.75v-28.8h18.66l12-12.39v-63.54a12.41 12.41 0 0 1 -12.24-10.44h-6.67" fill="none" stroke="#ccc" stroke-miterlimit="10" stroke-width="4"/><path d="m861.31 1455.79-31.43-31.43v-153.81h-43v-231.3h41.75v-66.7h28.79v-84h19.68v-76.76h-22.51v-21.12s39.71-13 50.51-30l43 26.27 31.49-53.8-44.59-25.61s9.72-19.07 1.08-61.9l43.55-27-30.54-53-44 25.65s-16.56-19.07-49.67-30.23v-19.05h21.58v-76.69h-19.41v-84.22h-29.87v-65.86h-40.79v-96.82l25.61-25.61-45.29-45.29-24.47 24.49h-29.87s-12.6-41-29.52-68.38-52.18-54-52.18-54l9.71-17.62-52.92-30.62-9.34 17.62s-35.27-17.62-87.46-17.62-87.1 17.62-87.1 17.62l-10.44-17.62-54 31.32 10.08 15.83s-35.56 30.54-52.74 57.83-27.84 66.22-27.84 66.22h-30.98l-24.18-24.23-43.79 43.79 24.92 24.92v99.25h-51s-41.21 2.16-65 38.15-11.88 70.9-11.88 70.9h38.16l17.81 17.82v23.21h-20v75.76h23v18s-15.66 5.76-27.71 13.67a139.84 139.84 0 0 0 -21.75 18.18l-44.93-26.15-30.47 52.54 44.64 26.61a116.12 116.12 0 0 0 -4.32 31.67c-.01 18.03 4.32 29.33 4.32 29.33l-44.64 27.81 31.19 54 43.91-26.91a100.48 100.48 0 0 0 22.32 18.71 129.48 129.48 0 0 0 27.35 12.48v19.2h-22.55v76.78h19.67v25.19l-17.25 14.42h-40.82s-8.63 46.55 17.76 76.06 53.51 32.87 53.51 32.87h58.06v233.7h-43.67v154.77l-34.91 34.92" fill="none" stroke="#4253ff" stroke-miterlimit="10" stroke-width="2"/><g fill="#4253ff"><path d="m435.88 845.86h46.73v4.2h-46.73z"/><path d="m435.88 855.95h46.73v4.2h-46.73z"/><path d="m435.88 866.03h46.73v4.2h-46.73z"/><path d="m435.88 876.12h46.73v4.2h-46.73z"/><path d="m435.88 886.21h46.73v4.2h-46.73z"/><path d="m435.88 896.29h46.73v4.2h-46.73z"/><path d="m435.88 906.38h46.73v4.2h-46.73z"/><path d="m435.88 916.47h46.73v4.2h-46.73z"/><path d="m435.88 926.55h46.73v4.2h-46.73z"/><path d="m435.88 936.64h46.73v4.2h-46.73z"/><path d="m435.88 946.73h46.73v4.2h-46.73z"/><path d="m435.88 956.82h46.73v4.2h-46.73z"/><path d="m435.88 966.9h46.73v4.2h-46.73z"/><path d="m435.88 976.99h46.73v4.2h-46.73z"/><path d="m435.88 987.08h46.73v4.2h-46.73z"/><path d="m435.88 997.16h46.73v4.2h-46.73z"/><path d="m435.88 1007.25h46.73v4.2h-46.73z"/><path d="m435.88 1017.34h46.73v4.2h-46.73z"/><path d="m435.88 1027.42h46.73v4.2h-46.73z"/><path d="m435.88 1037.51h46.73v4.2h-46.73z"/><path d="m435.88 1047.6h46.73v4.2h-46.73z"/><path d="m435.88 1057.69h46.73v4.2h-46.73z"/><path d="m435.88 1067.77h46.73v4.2h-46.73z"/><path d="m435.88 1077.86h46.73v4.2h-46.73z"/><path d="m435.88 1087.95h46.73v4.2h-46.73z"/><path d="m435.88 1098.03h46.73v4.2h-46.73z"/><path d="m435.88 1108.12h46.73v4.2h-46.73z"/><path d="m435.88 1118.21h46.73v4.2h-46.73z"/><path d="m435.88 1128.29h46.73v4.2h-46.73z"/><path d="m435.88 1138.38h46.73v4.2h-46.73z"/><path d="m435.88 1148.47h46.73v4.2h-46.73z"/><path d="m435.88 1158.56h46.73v4.2h-46.73z"/><path d="m435.88 1168.64h46.73v4.2h-46.73z"/><path d="m435.88 1178.73h46.73v4.2h-46.73z"/><path d="m435.88 1188.82h46.73v4.2h-46.73z"/><path d="m435.88 1198.9h46.73v4.2h-46.73z"/><path d="m435.88 1208.99h46.73v4.2h-46.73z"/><path d="m435.88 1219.08h46.73v4.2h-46.73z"/><path d="m435.88 1229.16h46.73v4.2h-46.73z"/><path d="m503.62 845.86h46.73v4.2h-46.73z"/><path d="m503.62 855.95h46.73v4.2h-46.73z"/><path d="m503.62 866.03h46.73v4.2h-46.73z"/><path d="m503.62 876.12h46.73v4.2h-46.73z"/><path d="m503.62 886.21h46.73v4.2h-46.73z"/><path d="m503.62 896.29h46.73v4.2h-46.73z"/><path d="m503.62 906.38h46.73v4.2h-46.73z"/><path d="m503.62 916.47h46.73v4.2h-46.73z"/><path d="m503.62 926.55h46.73v4.2h-46.73z"/><path d="m503.62 936.64h46.73v4.2h-46.73z"/><path d="m503.62 946.73h46.73v4.2h-46.73z"/><path d="m503.62 956.82h46.73v4.2h-46.73z"/><path d="m503.62 966.9h46.73v4.2h-46.73z"/><path d="m503.62 976.99h46.73v4.2h-46.73z"/><path d="m503.62 987.08h46.73v4.2h-46.73z"/><path d="m503.62 997.16h46.73v4.2h-46.73z"/><path d="m503.62 1007.25h46.73v4.2h-46.73z"/><path d="m503.62 1017.34h46.73v4.2h-46.73z"/><path d="m503.62 1027.42h46.73v4.2h-46.73z"/><path d="m503.62 1037.51h46.73v4.2h-46.73z"/><path d="m503.62 1047.6h46.73v4.2h-46.73z"/><path d="m503.62 1057.69h46.73v4.2h-46.73z"/><path d="m503.62 1067.77h46.73v4.2h-46.73z"/><path d="m503.62 1077.86h46.73v4.2h-46.73z"/><path d="m503.62 1087.95h46.73v4.2h-46.73z"/><path d="m503.62 1098.03h46.73v4.2h-46.73z"/><path d="m503.62 1108.12h46.73v4.2h-46.73z"/><path d="m503.62 1118.21h46.73v4.2h-46.73z"/><path d="m503.62 1128.29h46.73v4.2h-46.73z"/><path d="m503.62 1138.38h46.73v4.2h-46.73z"/><path d="m503.62 1148.47h46.73v4.2h-46.73z"/><path d="m503.62 1158.56h46.73v4.2h-46.73z"/><path d="m503.62 1168.64h46.73v4.2h-46.73z"/><path d="m503.62 1178.73h46.73v4.2h-46.73z"/><path d="m503.62 1188.82h46.73v4.2h-46.73z"/><path d="m503.62 1198.9h46.73v4.2h-46.73z"/><path d="m503.62 1208.99h46.73v4.2h-46.73z"/><path d="m503.62 1219.08h46.73v4.2h-46.73z"/><path d="m503.62 1229.16h46.73v4.2h-46.73z"/><path d="m660.04 692.44h4.2v46.73h-4.2z"/><path d="m669.39 692.44h4.2v46.73h-4.2z"/><path d="m678.75 692.44h4.2v46.73h-4.2z"/><path d="m688.1 692.44h4.2v46.73h-4.2z"/><path d="m697.46 692.44h4.2v46.73h-4.2z"/><path d="m706.81 692.44h4.2v46.73h-4.2z"/><path d="m716.17 692.44h4.2v46.73h-4.2z"/><path d="m725.52 692.44h4.2v46.73h-4.2z"/><path d="m734.88 692.44h4.2v46.73h-4.2z"/><path d="m744.24 692.44h4.2v46.73h-4.2z"/><path d="m753.59 692.44h4.2v46.73h-4.2z"/><path d="m762.95 692.44h4.2v46.73h-4.2z"/><path d="m660.04 616.71h4.2v46.73h-4.2z"/><path d="m669.39 616.71h4.2v46.73h-4.2z"/><path d="m678.75 616.71h4.2v46.73h-4.2z"/><path d="m688.1 616.71h4.2v46.73h-4.2z"/><path d="m697.46 616.71h4.2v46.73h-4.2z"/><path d="m706.81 616.71h4.2v46.73h-4.2z"/><path d="m716.17 616.71h4.2v46.73h-4.2z"/><path d="m725.52 616.71h4.2v46.73h-4.2z"/><path d="m734.88 616.71h4.2v46.73h-4.2z"/><path d="m744.24 616.71h4.2v46.73h-4.2z"/><path d="m753.59 616.71h4.2v46.73h-4.2z"/><path d="m762.95 616.71h4.2v46.73h-4.2z"/><path d="m227.19 692.44h4.2v46.73h-4.2z"/><path d="m236.54 692.44h4.2v46.73h-4.2z"/><path d="m245.9 692.44h4.2v46.73h-4.2z"/><path d="m255.26 692.44h4.2v46.73h-4.2z"/><path d="m264.61 692.44h4.2v46.73h-4.2z"/><path d="m273.97 692.44h4.2v46.73h-4.2z"/><path d="m283.32 692.44h4.2v46.73h-4.2z"/><path d="m292.68 692.44h4.2v46.73h-4.2z"/><path d="m302.03 692.44h4.2v46.73h-4.2z"/><path d="m311.39 692.44h4.2v46.73h-4.2z"/><path d="m320.74 692.44h4.2v46.73h-4.2z"/><path d="m330.1 692.44h4.2v46.73h-4.2z"/><path d="m227.19 616.71h4.2v46.73h-4.2z"/><path d="m236.54 616.71h4.2v46.73h-4.2z"/><path d="m245.9 616.71h4.2v46.73h-4.2z"/><path d="m255.26 616.71h4.2v46.73h-4.2z"/><path d="m264.61 616.71h4.2v46.73h-4.2z"/><path d="m273.97 616.71h4.2v46.73h-4.2z"/><path d="m283.32 616.71h4.2v46.73h-4.2z"/><path d="m292.68 616.71h4.2v46.73h-4.2z"/><path d="m302.03 616.71h4.2v46.73h-4.2z"/><path d="m311.39 616.71h4.2v46.73h-4.2z"/><path d="m320.74 616.71h4.2v46.73h-4.2z"/><path d="m330.1 616.71h4.2v46.73h-4.2z"/></g><circle cx="664.39" cy="1030.91" fill="#808080" r="12.42" stroke="#ccc" stroke-miterlimit="10" stroke-width="2"/><circle cx="664.39" cy="1121.19" fill="#808080" r="12.42" stroke="#ccc" stroke-miterlimit="10" stroke-width="2"/><circle cx="664.39" cy="1211.47" fill="#808080" r="12.42" stroke="#ccc" stroke-miterlimit="10" stroke-width="2"/><circle cx="664.39" cy="940.28" fill="#808080" r="12.42" stroke="#ccc" stroke-miterlimit="10" stroke-width="2"/><circle cx="664.39" cy="848.86" fill="#808080" r="12.42" stroke="#ccc" stroke-miterlimit="10" stroke-width="2"/><circle cx="573.11" cy="1030.91" fill="#808080" r="12.42" stroke="#ccc" stroke-miterlimit="10" stroke-width="2"/><circle cx="573.11" cy="1121.19" fill="#808080" r="12.42" stroke="#ccc" stroke-miterlimit="10" stroke-width="2"/><circle cx="573.11" cy="1211.47" fill="#808080" r="12.42" stroke="#ccc" stroke-miterlimit="10" stroke-width="2"/><circle cx="573.11" cy="940.28" fill="#808080" r="12.42" stroke="#ccc" stroke-miterlimit="10" stroke-width="2"/><circle cx="573.11" cy="848.86" fill="#808080" r="12.42" stroke="#ccc" stroke-miterlimit="10" stroke-width="2"/><circle cx="573.11" cy="323.41" fill="#808080" r="12.42" stroke="#ccc" stroke-miterlimit="10" stroke-width="2"/><circle cx="573.11" cy="413.7" fill="#808080" r="12.42" stroke="#ccc" stroke-miterlimit="10" stroke-width="2"/><circle cx="573.11" cy="503.98" fill="#808080" r="12.42" stroke="#ccc" stroke-miterlimit="10" stroke-width="2"/><circle cx="573.11" cy="232.78" fill="#808080" r="12.42" stroke="#ccc" stroke-miterlimit="10" stroke-width="2"/><circle cx="408.71" cy="323.41" fill="#808080" r="12.42" stroke="#ccc" stroke-miterlimit="10" stroke-width="2"/><circle cx="408.71" cy="413.7" fill="#808080" r="12.42" stroke="#ccc" stroke-miterlimit="10" stroke-width="2"/><circle cx="408.71" cy="503.98" fill="#808080" r="12.42" stroke="#ccc" stroke-miterlimit="10" stroke-width="2"/><circle cx="408.71" cy="232.78" fill="#808080" r="12.42" stroke="#ccc" stroke-miterlimit="10" stroke-width="2"/><circle cx="409.52" cy="1030.91" fill="#808080" r="12.42" stroke="#ccc" stroke-miterlimit="10" stroke-width="2"/><circle cx="409.52" cy="1121.19" fill="#808080" r="12.42" stroke="#ccc" stroke-miterlimit="10" stroke-width="2"/><circle cx="409.52" cy="1211.47" fill="#808080" r="12.42" stroke="#ccc" stroke-miterlimit="10" stroke-width="2"/><circle cx="409.52" cy="940.28" fill="#808080" r="12.42" stroke="#ccc" stroke-miterlimit="10" stroke-width="2"/><circle cx="409.52" cy="848.86" fill="#808080" r="12.42" stroke="#ccc" stroke-miterlimit="10" stroke-width="2"/><circle cx="318.23" cy="1030.91" fill="#808080" r="12.42" stroke="#ccc" stroke-miterlimit="10" stroke-width="2"/><circle cx="318.23" cy="1121.19" fill="#808080" r="12.42" stroke="#ccc" stroke-miterlimit="10" stroke-width="2"/><circle cx="318.23" cy="1211.47" fill="#808080" r="12.42" stroke="#ccc" stroke-miterlimit="10" stroke-width="2"/><circle cx="318.23" cy="940.28" fill="#808080" r="12.42" stroke="#ccc" stroke-miterlimit="10" stroke-width="2"/><circle cx="318.23" cy="848.86" fill="#808080" r="12.42" stroke="#ccc" stroke-miterlimit="10" stroke-width="2"/><circle cx="729.24" cy="759" fill="#808080" r="12.42" stroke="#ccc" stroke-miterlimit="10" stroke-width="2"/><circle cx="729.24" cy="593.44" fill="#808080" r="12.42" stroke="#ccc" stroke-miterlimit="10" stroke-width="2"/><circle cx="664.39" cy="759" fill="#808080" r="12.42" stroke="#ccc" stroke-miterlimit="10" stroke-width="2"/><circle cx="664.39" cy="593.44" fill="#808080" r="12.42" stroke="#ccc" stroke-miterlimit="10" stroke-width="2"/><circle cx="252.58" cy="593.44" fill="#808080" r="12.42" stroke="#ccc" stroke-miterlimit="10" stroke-width="2"/><circle cx="252.58" cy="759" fill="#808080" r="12.42" stroke="#ccc" stroke-miterlimit="10" stroke-width="2"/><circle cx="317.43" cy="593.44" fill="#808080" r="12.42" stroke="#ccc" stroke-miterlimit="10" stroke-width="2"/><circle cx="317.43" cy="759" fill="#808080" r="12.42" stroke="#ccc" stroke-miterlimit="10" stroke-width="2"/><path d="m583.29 1437.55v-3.55a21.12 21.12 0 0 0 14.62-34.84h4.09v-13.91h-60.21a12.42 12.42 0 1 0 -24.6 0h-.12v13.91h1.93l34.14 34.15v4.24z" fill="#808080" stroke="#ccc" stroke-linecap="round" stroke-linejoin="round" stroke-width="2"/><path d="m379 1412.91a21.07 21.07 0 0 1 5.1-13.75h-4.1v-13.91h60.23a12.41 12.41 0 1 1 24.6 0h.11v13.91h-1.94l-34.14 34.15v4.24h-30.18v-3.55a21.15 21.15 0 0 1 -19.68-21.09z" fill="#808080" stroke="#ccc" stroke-linecap="round" stroke-linejoin="round" stroke-width="2"/><path d="m435.82 600.64-9.59-9.6a5.5 5.5 0 0 0 -5.66-1.3 12.42 12.42 0 1 0 -15.79 15.47 5.5 5.5 0 0 0 1.11 6.17l9.6 9.59a5.5 5.5 0 0 0 7.8 0l12.53-12.53a5.5 5.5 0 0 0 0-7.8z" fill="#808080" stroke="#ccc" stroke-miterlimit="10" stroke-width="2"/><path d="m577.5 747.4a5.51 5.51 0 0 0 -1.1-6.19l-9.6-9.59a5.5 5.5 0 0 0 -7.8 0l-12.53 12.53a5.5 5.5 0 0 0 0 7.8l9.59 9.6a5.5 5.5 0 0 0 5.29 1.41 12.41 12.41 0 1 0 16.15-15.56z" fill="#808080" stroke="#ccc" stroke-miterlimit="10" stroke-width="2"/><path d="m585.53 593.44a12.42 12.42 0 0 0 -24.23-3.83 5.51 5.51 0 0 0 -5.24 1.43l-9.59 9.6a5.5 5.5 0 0 0 0 7.8l12.53 12.56a5.5 5.5 0 0 0 7.8 0l9.6-9.59a5.5 5.5 0 0 0 1-6.32 12.39 12.39 0 0 0 8.13-11.65z" fill="#808080" stroke="#ccc" stroke-miterlimit="10" stroke-width="2"/><path d="m435.82 744.15-12.53-12.53a5.5 5.5 0 0 0 -7.8 0l-9.6 9.59a5.53 5.53 0 0 0 -1.18 6 12.42 12.42 0 1 0 15.81 15.59 5.52 5.52 0 0 0 5.71-1.29l9.59-9.6a5.5 5.5 0 0 0 0-7.76z" fill="#808080" stroke="#ccc" stroke-miterlimit="10" stroke-width="2"/><path d="m466.55 666.03h50.39v17.64h-50.39z" fill="#808080" stroke="#ccc" stroke-miterlimit="10" stroke-width="2"/><path d="m462.05 491.29h59.39v27.69h-59.39z" fill="#808080" stroke="#ccc" stroke-miterlimit="10" stroke-width="2"/><circle cx="532.37" cy="160.72" fill="#808080" r="12.42" stroke="#ccc" stroke-linecap="round" stroke-linejoin="round" stroke-width="2"/><circle cx="450.31" cy="160.72" fill="#808080" r="12.42" stroke="#ccc" stroke-linecap="round" stroke-linejoin="round" stroke-width="2"/><path d="m455 1270.31-37.19 18.69a12.4 12.4 0 0 0 -20 5.55h-6.32v11.52h8.45a12.4 12.4 0 0 0 22.09-7.33l38.06-19.11-.3-.6h.93z" fill="#808080" stroke="#ccc" stroke-linecap="round" stroke-linejoin="round" stroke-width="2"/><path d="m590.48 1294.55h-5.54a12.4 12.4 0 0 0 -20-5.55l-37.27-18.72-4.47 9.62 37.52 18.84a12.41 12.41 0 0 0 22.1 7.33h7.67z" fill="#808080" stroke="#ccc" stroke-linecap="round" stroke-linejoin="round" stroke-width="2"/><path d="m942.74 720.9-23.45-13.53a102.52 102.52 0 0 0 -1.23-62.22l25.08-14.48-4.84-8.38 18-10.37-12.9-22.29-18 10.37-4.84-8.38-26.11 15.07a102.35 102.35 0 0 0 -58-29.92v-52.15h24.53v-41.27h-24.44v-40.59h-29.62l-16.64-16.65h.32v-32.78h-51.35v-51.33h29.75v-41.29h-29.75v-47.29h29.75v-43.42h-1l18.17-18.17-18-18-15 15h-47.1v21.17h-26.75a188.13 188.13 0 0 0 -7.92-36.6l20.06-6.85-6.81-19.91-20.85 7.12a188.49 188.49 0 0 0 -18.88-32.57l16.59-14-13.51-16.06-16.27 13.71a191 191 0 0 0 -28.45-25.67l13-22.51-7.66-4.42 7.49-13-21.51-12.36-7.49 13-7.65-4.42-13.06 22.59a188.37 188.37 0 0 0 -33.79-10.93l2.39-22.07-20.93-2.25-2.26 20.93a189.44 189.44 0 0 0 -41.67.12l-2.27-21-20.87 2.2 2.4 22.32a187.74 187.74 0 0 0 -33.59 11.06l-13.28-23-7.65 4.42-7.49-13-21.51 12.42 7.49 13-7.66 4.42 13.29 23.04a190.75 190.75 0 0 0 -28.16 25.63l-16.84-14.23-13.56 16.09 17.26 14.55a189.45 189.45 0 0 0 -18.62 32.32l-21.78-7.44-6.81 19.91 21 7.19a187.72 187.72 0 0 0 -7.79 36.25h-28v-21.1h-45.1l-16.43-16.43-19.8 19.79 18.46 18.46v42.7h29.76v47.29h-29.78v41.29h29.76v51.35h-51.35v32.78h.32l-16.64 16.63h-29.62v40.59h-24.52v41.27h24.52v52a102.3 102.3 0 0 0 -58.81 30l-26.1-15.07-4.85 8.45-18-10.37-12.82 22.29 18 10.37-4.84 8.38 25.04 14.48a102.52 102.52 0 0 0 -1.23 62.22l-23.45 13.53 4.78 8.19-18.3 10.54 12.87 22.28 18.25-10.53 4.72 8.18 22.86-13.19a102.39 102.39 0 0 0 60.89 33.21v48h-24.95v42.47h22.07v41.55h33.11l14.88 14.88v29.52h49.91v52.55h-28.56v42.45h28.56v49h-28.56v42.47h28.56v48.94h-28.56v42.47h28.56v67h-9.69v-14.88h-61v53.27h40.38v40l-41.4 41.41 6.55 6.55-33.15 33.02 20.36 20.36 33.15-33.16 4.58 4.58 40.39-40.39h27.11v9.6h6.37l23 23v3.89h25.44v-4.35l22.52-22.52h4.75v-28.8h-18.67a12.41 12.41 0 0 0 -12.06-12.39v-63.63a12.39 12.39 0 0 0 11.87-10.35h6.69v-11.52h-10.93a12.4 12.4 0 0 0 -20 6.24h-40.52a12.42 12.42 0 0 0 -10.15-9v-68.29a12.41 12.41 0 0 0 0-24v-66.3a12.4 12.4 0 0 0 0-24v-66.3a12.4 12.4 0 0 0 0-24v-66.65a12.41 12.41 0 0 0 0-24v-67.42a12.41 12.41 0 1 0 -15.59-12h-63.83v-3h-3.41a12.43 12.43 0 0 0 -8.58-8.92v-66a12.42 12.42 0 1 0 -15.87-11.93h-3.33v.45a82.74 82.74 0 0 1 -50.11-31.13 12.41 12.41 0 1 0 -11.86-21.56 83 83 0 0 1 1.32-60.49 12.41 12.41 0 0 0 12.9-21.19 82.67 82.67 0 0 1 51.46-28.8 12.41 12.41 0 1 0 15.53-14.76v-.52h.38v-76.72h12v-2.62h66.71v2.62h11.51v-4.78h51.78a12.41 12.41 0 1 0 14-7.7v-65.92a12.42 12.42 0 0 0 0-24.36v-65.93a12.42 12.42 0 0 0 0-24.36v-66.23a12.41 12.41 0 0 0 -2.4-24.59h1.49a172.87 172.87 0 0 1 345 0h.38a12.41 12.41 0 0 0 -2.38 24.59v66.27a12.42 12.42 0 0 0 0 24.36v65.93a12.42 12.42 0 0 0 0 24.36v65.88a12.45 12.45 0 1 0 14 7.7h51.78v4.78h11.51v-2.62h66.71v2.62h12v71.37h-.48v5.85a12.41 12.41 0 1 0 15.48 14.78 82.67 82.67 0 0 1 51.42 28.8 12.42 12.42 0 0 0 12.91 21.19 83 83 0 0 1 1.31 60.49 12.41 12.41 0 1 0 -11.85 21.56 82.79 82.79 0 0 1 -50.12 31.13v-.45h-3.32a12.42 12.42 0 1 0 -15.87 11.92v66a12.43 12.43 0 0 0 -8.59 8.92h-3.41v3h-63.83a12.42 12.42 0 1 0 -15.59 12v67.43a12.41 12.41 0 0 0 0 24v66.65a12.4 12.4 0 0 0 0 24v66.3a12.4 12.4 0 0 0 0 24v66.3a12.41 12.41 0 0 0 0 24v68.59a12.42 12.42 0 0 0 -8.8 8.73h-40.53a12.4 12.4 0 0 0 -20-6.24h-11.25v11.52h7a12.4 12.4 0 0 0 11.87 10.35v63.63a12.4 12.4 0 0 0 -12 12.39h-18.67v28.8h4.75l22.57 22.47v4.35h25.44v-3.89l23-23h6.37v-9.6h27.11l40.32 40.38 4.58-4.58 33.18 33.19 20.36-20.36-33.15-33.16 6.55-6.55-41.4-41.41v-40h40.31v-53.27h-60.98v14.88h-11v-67h28.56v-42.47h-28.6v-48.94h28.56v-42.33h-28.56v-49h28.56v-42.47h-28.56v-52.53h49.91v-29.52l14.88-14.88h33.11v-41.51h22.07v-42.47h-25v-48a102.44 102.44 0 0 0 60.9-33.21l22.85 13.19 4.73-8.18 18.25 10.53 12.86-22.28-18.21-10.58zm-659.85 618.28v53.26h-16.32v14.4h-27.83l-1.82-1.82-20.36-20.36-1.34-1.33v-44.15zm-41.66-483.24v19l-19-19zm-65.75 0h40.31l-.18.18 25.62 25.61v26.51h-1.92v16.32h-45l-18.79-18.78zm.38-362.56v-11.57l11.58 11.57zm66.71 0h-17.09l17.09-17.09zm0-22.52-22.52 22.52h-27.18l-17-17v-29.15l21.13-21.12h27l18.55 18.55zm0-31.62-13.12-13.13h13.12zm68.14-126.24a12.43 12.43 0 0 0 -4.67 5.49h-18.84v8.64h18.37a12.48 12.48 0 0 0 5.14 6.74v69.42a12.39 12.39 0 0 0 -4.91 6.11h-18.6v8.6h18.6a12.39 12.39 0 0 0 4.91 6.11v69.25h-56.63v-75.36h19.8v-8.64h-19.8v-82.25h19.8v-8.64h-19.8v-82.54h-6.24v-7.93l2.65-2.64h7.43v6.35h47.14c0 .35-.05.7-.05 1.06a12.38 12.38 0 0 0 5.7 10.43zm423.29-77.07h-6.24v82.54h-19.8v8.64h19.8v82.27h-19.8v8.62h19.8v75.36h-56.65v-69.23a12.39 12.39 0 0 0 4.89-6.13h18.61v-8.64h-18.61a12.39 12.39 0 0 0 -4.91-6.11v-69.4a12.48 12.48 0 0 0 5.14-6.74h18.38v-8.64h-18.83a12.43 12.43 0 0 0 -4.67-5.49v-69.77a12.38 12.38 0 0 0 5.7-10.43c0-.36 0-.71 0-1.06h47.09v-6.35h10.1zm5.27 190.18h13.13l-13.13 13.13zm0 67.27v-17.09l17.1 17.09zm66.71 0h-11.6l11.62-11.57zm0-17-17 17h-27.21l-22.52-22.52v-26.2l18.55-18.55h27.05l21.15 21.12zm-66.25 379.56h19l-19 19zm13 483.24h14.4v44.15l-1.34 1.33-20.4 20.34-1.82 1.82h-27.83v-14.4h-16.32v-53.26zm52.79-433.4-18.82 18.78h-45.05v-16.32h-1.92v-26.51l25.62-25.61-.18-.18h40.31z" fill="#808080" stroke="#ccc" stroke-linecap="round" stroke-linejoin="round" stroke-width="2"/><path d="m400.3 1558.94h180.37v7.31h-180.37z" fill="none" stroke="#4253ff" stroke-miterlimit="10"/><path d="m400.3 1566.26h180.37v7.31h-180.37z" fill="none" stroke="#4253ff" stroke-miterlimit="10"/><path d="m400.3 1573.57h180.37v7.31h-180.37z" fill="none" stroke="#4253ff" stroke-miterlimit="10"/><path d="m400.3 1580.88h180.37v7.31h-180.37z" fill="none" stroke="#4253ff" stroke-miterlimit="10"/><path d="m400.3 1588.2h180.37v7.31h-180.37z" fill="none" stroke="#4253ff" stroke-miterlimit="10"/><path d="m400.3 1595.51h180.37v7.31h-180.37z" fill="none" stroke="#4253ff" stroke-miterlimit="10"/><path d="m400.3 1602.82h180.37v7.31h-180.37z" fill="none" stroke="#4253ff" stroke-miterlimit="10"/><path d="m400.3 1610.13h180.37v7.31h-180.37z" fill="none" stroke="#4253ff" stroke-miterlimit="10"/><path d="m400.3 1617.45h180.37v7.31h-180.37z" fill="none" stroke="#4253ff" stroke-miterlimit="10"/><path d="m400.3 1624.76h180.37v7.31h-180.37z" fill="none" stroke="#4253ff" stroke-miterlimit="10"/><path d="m400.3 1632.07h180.37v7.31h-180.37z" fill="none" stroke="#4253ff" stroke-miterlimit="10"/></svg>